<?xml version="1.0" encoding="utf-8"?>
<!-- Generator: Adobe Illustrator 26.3.1, SVG Export Plug-In . SVG Version: 6.00 Build 0)  -->
<svg version="1.1" id="Слой_1" xmlns="http://www.w3.org/2000/svg" xmlns:xlink="http://www.w3.org/1999/xlink" x="0px" y="0px"
	 viewBox="0 0 283.4 70.17" style="enable-background:new 0 0 283.4 70.17;" xml:space="preserve">
<style type="text/css">
	.st0{fill:#C8812F;}
</style>
<g>
	<g>
		<path class="st0" d="M252.57,68.75h2.19c0.97,0,1.84-0.09,2.61-0.27v1.5c-0.46,0.03-0.94,0.05-1.43,0.05h-8.96v-0.87
			c0.63-0.19,1.03-0.39,1.17-0.59s0.21-0.53,0.21-1V55.64c0-0.47-0.07-0.81-0.21-1.02c-0.14-0.22-0.53-0.41-1.17-0.57v-0.87h8.31
			c0.73,0,1.42,0.02,2.08,0.07v1.61c-0.93-0.27-1.92-0.4-2.98-0.4h-1.83v14.29H252.57z M257.37,68.48c3.2-0.74,4.8-3,4.8-6.78
			c0-2.82-0.79-4.73-2.36-5.74c-0.76-0.48-1.57-0.85-2.44-1.1v-1.61c3.52,0.25,5.91,1.16,7.19,2.75c1.52,1.88,2.28,3.8,2.28,5.77
			c0,2.65-1.11,4.75-3.31,6.31c-1.58,1.1-3.64,1.73-6.15,1.9v-1.5H257.37z"/>
		<path class="st0" d="M211.53,53.19h5.31l10.42,10.7h0.31v-8.37c0-0.85-0.55-1.34-1.66-1.47v-0.87h4.8v0.87
			c-1.1,0.13-1.66,0.62-1.66,1.47v14.51h-1.49L214.9,56.99h-0.28v10.7c0,0.85,0.55,1.34,1.66,1.47v0.87h-4.8v-0.87
			c1.1-0.13,1.66-0.62,1.66-1.47V55.52c0-1.04-0.54-1.53-1.6-1.47L211.53,53.19L211.53,53.19z"/>
		<path class="st0" d="M183.05,57.51l-3.57,6.59v0.1h3.65v1.28h-4.49l-0.73,1.42c-0.17,0.37-0.28,0.69-0.33,0.95
			c-0.04,0.26,0.07,0.52,0.33,0.77s0.77,0.43,1.51,0.54v0.87h-5.5v-0.87c0.78-0.19,1.47-0.81,2.05-1.85l5.67-10.27
			c0.22-0.4,0.34-0.89,0.34-1.47c0-0.16-0.13-0.29-0.38-0.4s-0.56-0.13-0.94-0.09v-0.87c0.96-0.06,1.79-0.25,2.47-0.58v3.87h-0.08
			V57.51z M183.13,64.2h3.65v-0.07l-3.62-6.61h-0.03v-3.87c0.4-0.19,0.76-0.43,1.07-0.72h1.01l7.36,13.18
			c0.54,0.96,1.01,1.66,1.4,2.09c0.4,0.43,0.81,0.76,1.24,0.96v0.87h-8.04v-0.87c0.49,0,0.87-0.14,1.14-0.42s0.41-0.6,0.41-0.95
			c0-0.15-0.08-0.39-0.25-0.75l-0.87-1.56h-4.47L183.13,64.2L183.13,64.2z"/>
		<path class="st0" d="M140.38,53.19h7.05v0.87c-0.6,0.07-0.98,0.24-1.14,0.53c-0.16,0.29-0.24,0.64-0.24,1.06v13.11h6.38
			c1.09,0,2.02-0.3,2.81-0.9c0.78-0.6,1.25-1.29,1.4-2.08h1.01v4.26h-17.27v-0.87c0.97-0.08,1.46-0.61,1.46-1.59V55.64
			c0-0.48-0.1-0.84-0.3-1.08c-0.19-0.24-0.58-0.41-1.16-0.51L140.38,53.19L140.38,53.19z"/>
		<path class="st0" d="M118.33,63.22h5.78v6.09c-2.34,0.66-4.6,0.99-6.8,0.99c-1.91,0-3.77-0.26-5.59-0.8
			c-1.81-0.53-3.34-1.45-4.58-2.76c-1.24-1.32-1.85-3.07-1.85-5.27c0-1.49,0.42-2.9,1.26-4.21c0.85-1.32,2.04-2.37,3.59-3.16
			c1.54-0.8,3.33-1.19,5.35-1.19c0.75,0,1.59,0.1,2.53,0.29c1.5,0.34,2.37,0.5,2.61,0.5c0.49,0,0.84-0.15,1.07-0.45h0.93v4.04h-1.01
			c-0.34-0.85-0.97-1.58-1.9-2.19c-0.93-0.61-2.18-0.91-3.78-0.91c-2.25,0-3.81,0.68-4.68,2.03c-0.87,1.36-1.31,3.04-1.31,5.06
			c0,3,0.64,5.04,1.91,6.12c1.27,1.08,2.74,1.62,4.41,1.62c0.9,0,1.73-0.19,2.49-0.58c0.76-0.38,1.14-1,1.14-1.83v-0.8
			c0-1.07-0.52-1.65-1.57-1.73V63.22z"/>
		<path class="st0" d="M69.84,53.19h5.31l10.42,10.7h0.31v-8.37c0-0.85-0.55-1.34-1.66-1.47v-0.87h4.8v0.87
			c-1.1,0.13-1.66,0.62-1.66,1.47v14.51h-1.49L73.22,56.99h-0.28v10.7c0,0.85,0.55,1.34,1.66,1.47v0.87h-4.8v-0.87
			c1.1-0.13,1.66-0.62,1.66-1.47V55.52c0-1.04-0.54-1.53-1.6-1.47v-0.86H69.84z"/>
		<path class="st0" d="M35.88,53.19h13.9c0.43,0,0.73-0.03,0.89-0.07c0.16-0.05,0.29-0.17,0.41-0.36h0.7v4.3h-1.01
			c-0.23-0.72-0.54-1.27-0.94-1.65c-0.4-0.38-0.89-0.63-1.46-0.76c-0.57-0.13-1.28-0.19-2.12-0.19h-4.69v6.09h3.12
			c1.63,0,2.43-0.51,2.42-1.54h1.01v4.33H47.1c-0.11-1.01-0.73-1.51-1.85-1.51h-3.68v6.92h6.74c1.09,0,2.02-0.3,2.81-0.9
			s1.26-1.29,1.4-2.08h1.01v4.26H35.88v-0.87c0.98-0.08,1.46-0.61,1.46-1.59V55.64c0-0.95-0.48-1.47-1.46-1.59V53.19z"/>
		<path class="st0" d="M39.17,27.94l-2.34-4.5h-0.5L26.61,40.2h-3.28L6.16,6.47C5.57,5.25,4.83,4.33,3.95,3.71
			C3.07,3.1,1.78,2.86,0.1,3V0.04h17.54V3c-0.84-0.07-1.45-0.01-1.83,0.15c-0.38,0.17-0.61,0.36-0.69,0.56
			c-0.08,0.14-0.15,0.26-0.19,0.36c-0.04,0.1-0.06,0.19-0.06,0.26v0.3c0,0.14,0.04,0.27,0.13,0.41c0,0.07,0.02,0.15,0.06,0.25
			c0.04,0.11,0.06,0.19,0.06,0.26c0.08,0.13,0.15,0.25,0.19,0.36c0.04,0.1,0.06,0.19,0.06,0.26l12.12,24.22H28l6.44-11.14
			l-6.7-12.67c-0.08-0.14-0.16-0.29-0.25-0.46c-0.08-0.17-0.17-0.33-0.25-0.46c-0.51-0.88-1.07-1.55-1.7-1.99
			C24.9,3.22,24.04,3,22.95,3V0.04h16.22v2.25h-2.21h-0.32H36.2h-0.32c-0.13,0-0.27,0.04-0.44,0.1c-0.17,0-0.34,0.07-0.51,0.21
			s-0.26,0.34-0.26,0.61c0,0.21,0.07,0.44,0.19,0.71c0.13,0.27,0.36,0.68,0.7,1.23l3.28,6.13h0.25l0.06-0.11v16.77H39.17z
			 M72.94,0.04V3c-1.6,0.07-2.84,0.55-3.72,1.43c-0.88,0.89-1.66,1.94-2.34,3.17L49.21,40.2h-3.66l-6.37-12.26V11.17l3.47-6.02
			c0.34-0.55,0.59-0.96,0.76-1.23s0.25-0.51,0.25-0.71V3.05V3c0-0.34-0.11-0.54-0.32-0.61c-0.21-0.07-0.52-0.1-0.95-0.1h-0.06h-0.19
			h-0.19h-0.06h-0.51h-0.51h-1.7V0.04H51.6V3c-1.43,0.07-2.54,0.44-3.34,1.13c-0.8,0.68-1.5,1.43-2.09,2.25
			C46,6.64,45.86,6.92,45.73,7.19s-0.27,0.55-0.44,0.82L41,15.47l7.95,15.33h0.38L61.7,7.91c0.08-0.14,0.17-0.27,0.25-0.41
			s0.17-0.27,0.25-0.41c0.09-0.14,0.15-0.29,0.19-0.46c0.04-0.17,0.1-0.32,0.19-0.46c0.08-0.21,0.15-0.41,0.19-0.61
			c0.04-0.21,0.06-0.41,0.06-0.62c0-0.55-0.27-1-0.82-1.38C61.47,3.19,60.65,3,59.56,3H59.3h-0.38V0.04H72.94z"/>
		<path class="st0" d="M74.43,12.48h12.82v20.04c0,1.46,0.31,2.64,0.93,3.56c0.62,0.92,1.95,1.42,4,1.52v2.05H74.43V37.6
			c2.12-0.19,3.45-0.74,4-1.66s0.82-2.06,0.82-3.42V19.67c0-1.55-0.27-2.72-0.82-3.49c-0.55-0.78-1.88-1.33-4-1.66V12.48z"/>
		<path class="st0" d="M97.98,0.04h12.82v32.48c0,1.46,0.31,2.65,0.93,3.56c0.62,0.92,1.95,1.42,4,1.51v2.05H97.87v-2.05
			c2.12-0.19,3.47-0.7,4.05-1.55c0.59-0.85,0.88-2.02,0.88-3.53V7.16c0-1.51-0.22-2.68-0.66-3.53c-0.44-0.84-1.83-1.36-4.16-1.55
			C97.98,2.08,97.98,0.04,97.98,0.04z"/>
		<path class="st0" d="M121.42,37.59c2.12-0.19,3.47-0.7,4.05-1.55s0.87-2.02,0.87-3.52V18.19c0-0.19-0.02-0.39-0.05-0.6
			c-0.04-0.21-0.1-0.43-0.17-0.67c-0.22-0.47-0.65-0.93-1.31-1.38c-0.66-0.45-1.75-0.79-3.28-1.02v-2.05h12.81v3.46h0.33
			c0.8-0.52,1.61-0.98,2.41-1.37c0.8-0.4,1.61-0.74,2.41-1.02c1.75-0.66,3.47-1.09,5.15-1.31c1.68-0.21,3.14-0.32,4.38-0.32h0.22
			h0.33c2.05,0.05,3.98,0.4,5.8,1.06c1.83,0.66,3.14,1.65,3.94,2.96h0.22c2.78-1.69,5.4-2.79,7.89-3.28
			c2.48-0.49,4.71-0.74,6.68-0.74c4.02,0,6.85,0.53,8.49,1.59s2.72,2.2,3.23,3.42c0.22,0.66,0.35,1.29,0.38,1.9
			c0.04,0.61,0.05,1.15,0.05,1.62v0.04v0.1v11.93c0,1.46,0.31,2.64,0.93,3.56c0.62,0.92,1.95,1.42,4,1.52v2.05h-17.85v-2.05
			c2.12-0.19,3.47-0.7,4.05-1.55s0.88-2.02,0.88-3.52V20.59c0-1.69-0.44-3.07-1.32-4.13c-0.88-1.06-2.59-1.58-5.15-1.58
			c-0.8,0-1.88,0.09-3.23,0.28c-1.35,0.19-2.72,0.61-4.11,1.27c-0.73,0.37-1.44,0.81-2.14,1.31c-0.69,0.49-1.37,1.09-2.02,1.8v12.98
			c0.07,1.46,0.38,2.64,0.93,3.56c0.55,0.92,1.88,1.42,4,1.52v2.05h-17.85V37.6c2.12-0.19,3.47-0.7,4.05-1.55
			c0.59-0.85,0.88-2.02,0.88-3.52V20.59v-0.67c0-0.21-0.03-0.44-0.11-0.67c-0.07-1.08-0.53-2.08-1.37-3s-2.5-1.37-4.99-1.37
			c-0.44,0-1.5,0.12-3.17,0.35c-1.68,0.23-3.47,0.94-5.37,2.12c-0.51,0.28-1.02,0.61-1.53,0.99s-0.99,0.8-1.43,1.27v12.91
			c0,1.36,0.31,2.51,0.93,3.45c0.62,0.94,1.95,1.48,4,1.62v2.05h-17.85L121.42,37.59L121.42,37.59z"/>
		<path class="st0" d="M213.59,14.1c-1.43,0-2.53,0.21-3.28,0.6c-0.77,0.4-1.33,0.84-1.7,1.31c-0.22,0.23-0.36,0.46-0.44,0.67
			c-0.07,0.21-0.15,0.41-0.22,0.6c-0.07,0.1-0.15,0.23-0.22,0.42s-0.18,0.38-0.33,0.56c-0.29,0.28-0.69,0.54-1.2,0.78
			c-0.51,0.23-1.21,0.35-2.08,0.35c-0.15,0-0.31-0.01-0.49-0.03c-0.18-0.03-0.38-0.04-0.6-0.04c-0.59-0.1-1.13-0.29-1.64-0.6
			c-0.51-0.3-0.77-0.78-0.77-1.44V17.1v-0.18c0.29-1.27,1.72-2.42,4.27-3.46c2.33-0.94,5.23-1.46,8.71-1.54L213.59,14.1L213.59,14.1
			z M213.59,39.81c-1.56,0.21-2.86,0.32-3.89,0.32c-4.53,0-7.8-0.76-9.81-2.29c-2.01-1.53-3.01-3.23-3.01-5.11
			c0-3.81,2.56-6.35,7.67-7.62c2.85-0.71,5.86-1.26,9.03-1.66v2.53c-1.73,0.37-3.11,0.86-4.16,1.46c-2.37,1.36-3.71,2.87-4,4.51
			v0.32v0.32c0,1.41,0.71,2.54,2.13,3.38c1.42,0.85,3.27,1.27,5.53,1.27c0.17,0,0.33,0,0.49-0.01v2.58H213.59z M236.2,36.89
			l0.77,0.78c-0.8,0.75-1.77,1.35-2.9,1.8c-1.13,0.45-2.5,0.67-4.11,0.67c-1.9,0-3.45-0.38-4.65-1.13
			c-1.21-0.75-2.03-1.65-2.47-2.68h-0.22c-0.29,0.19-0.58,0.37-0.88,0.56c-0.29,0.19-0.58,0.35-0.88,0.49
			c-2.19,1.22-4.29,1.99-6.3,2.29c-0.34,0.05-0.67,0.1-0.99,0.14v-2.58c3.58-0.08,5.83-1.04,6.74-2.89
			c0.95-1.93,1.42-4.19,1.42-6.77V25.1c-3.26,0.1-5.98,0.39-8.16,0.87v-2.53c2.51-0.32,5.12-0.54,7.83-0.66h0.16h0.16
			c0-2.26-0.4-4.27-1.2-6.03s-3.11-2.65-6.9-2.65h-0.05v-2.17c0.34-0.01,0.69-0.01,1.04-0.01c5.18,0,8.78,0.76,10.79,2.26
			s3.3,3.15,3.89,4.94c0.22,0.85,0.35,1.68,0.38,2.5c0.04,0.82,0.05,1.57,0.05,2.22v0.04v0.11v8.89c0,1.74,0.44,2.92,1.32,3.53
			s1.83,0.89,2.84,0.85h0.38c0.11,0,0.24-0.03,0.38-0.07c0.29,0,0.56-0.03,0.82-0.1C235.75,36.99,235.98,36.93,236.2,36.89"/>
		<path class="st0" d="M280.67,12.48v2.05c-1.02,0-1.94,0.11-2.74,0.32s-1.61,0.53-2.41,0.95c-0.59,0.33-1.19,0.74-1.81,1.24
			c-0.62,0.49-1.3,1.05-2.03,1.66l-6.46,5.51l10.62,9.52c0.81,0.76,1.54,1.39,2.19,1.91c0.66,0.52,1.28,0.92,1.86,1.2
			c0.51,0.28,1.04,0.48,1.59,0.6s1.15,0.18,1.81,0.18v2.05h-19.17v-2.05h0.22h0.22h0.11h0.22c1.02,0,1.77-0.14,2.24-0.43
			c0.47-0.28,0.78-0.61,0.93-0.99v-0.14V35.9c0-0.14-0.04-0.28-0.11-0.42c-0.07-0.14-0.15-0.29-0.22-0.43
			c-0.07-0.09-0.16-0.2-0.27-0.32c-0.11-0.11-0.2-0.22-0.27-0.32c-0.15-0.14-0.29-0.28-0.44-0.43c-0.14-0.14-0.25-0.23-0.33-0.28
			l-6.24-5.22h-0.11l-5.7,4.8c-0.95,0.76-1.55,1.34-1.81,1.76c-0.26,0.43-0.38,0.75-0.38,0.99c0,0.66,0.4,1.08,1.2,1.27
			s1.68,0.28,2.63,0.28h0.27h0.27v2.05H239.9v-2.05c1.32,0.05,2.52-0.11,3.61-0.46c1.1-0.36,2.16-0.86,3.18-1.52
			c0.66-0.43,1.31-0.89,1.97-1.41s1.35-1.08,2.08-1.69l7.12-6.14l-7.89-6.98c-1.1-0.99-2.06-1.81-2.9-2.47s-1.66-1.18-2.46-1.55
			c-0.58-0.28-1.17-0.48-1.75-0.6c-0.59-0.12-1.21-0.2-1.86-0.25v-2.05h18.62v2.05c-0.95,0.05-1.77,0.12-2.46,0.21
			c-0.69,0.1-1.04,0.33-1.04,0.7c0,0.1,0.15,0.37,0.44,0.81s1.13,1.28,2.52,2.5l3.83,3.38l4.38-4.02c0.07-0.1,0.18-0.19,0.33-0.28
			c0.15-0.1,0.26-0.19,0.33-0.28c0.22-0.19,0.42-0.38,0.6-0.56c0.18-0.19,0.35-0.38,0.49-0.56c0.07-0.14,0.13-0.27,0.16-0.39
			c0.04-0.12,0.05-0.25,0.05-0.39v-0.11v-0.03c-0.07-0.28-0.31-0.53-0.71-0.74s-1.07-0.3-2.02-0.25v-2.05h14.15V12.48z"/>
		<path class="st0" d="M82.04,7.82c2.93,0,5.31-1.75,5.31-3.89s-2.39-3.89-5.31-3.89c-2.93,0-5.31,1.74-5.31,3.89
			C76.73,6.07,79.12,7.82,82.04,7.82"/>
	</g>
</g>
</svg>
